<svg xmlns="http://www.w3.org/2000/svg" width="126.907" height="110.594" viewBox="0 0 126.907 110.594"><path d="M-306.626,665.549c-.029.533.357.844.6,1.212,1.61,2.446,3.322,4.829,4.838,7.331a7.22,7.22,0,0,1-6.132,11.046q-11.686.107-23.374,0a7.21,7.21,0,0,1-6.085-11.061c1.52-2.5,3.238-4.879,4.847-7.326.24-.365.634-.674.585-1.31h-1.484q-15.4,0-30.8-.005c-5.675-.01-10.006-3.32-11.277-8.572a13.868,13.868,0,0,1-.308-3.276q0-33.546,0-67.091c0-7.193,4.693-11.869,11.861-11.87q44.411,0,88.822,0c7.022,0,11.717,4.676,11.725,11.7.012,10.449.032,20.9-.032,31.346-.008,1.317.4,1.575,1.59,1.519,1.967-.093,3.941-.048,5.911-.02a6.844,6.844,0,0,1,6.913,6.3,15.049,15.049,0,0,1,.064,1.646c0,16.681-.075,33.363.048,50.044.038,5.254-3.56,8.184-8.087,8.052-7.235-.21-14.481-.053-21.723-.057-4.513,0-7.4-2.842-7.441-7.348-.031-3.757-.011-7.516,0-11.274,0-.63.047-1.121-.887-1.116-6.6.04-13.2.025-19.8.032A1.592,1.592,0,0,0-306.626,665.549Zm34.4-46.427c1.694.014,3.392-.028,5.082.062,1.022.054,1.374-.174,1.369-1.3-.051-10.492-.024-20.983-.033-31.475,0-5.49-3.305-8.767-8.818-8.768q-44.33,0-88.66,0c-5.642,0-8.927,3.3-8.928,8.978q0,28.795-.032,57.589c0,1.271.334,1.57,1.581,1.568q41.787-.055,83.574-.028a5.843,5.843,0,0,1,.687,0c.683.081.865-.249.848-.881-.05-1.875-.059-3.751-.084-5.626.024-3.525.06-7.051.067-10.576,0-2,.208-1.743-1.762-1.744q-35.879-.007-71.757,0c-1.108,0-2.336.154-2.46-1.447-.085-1.1.695-1.546,2.539-1.547q3.23,0,6.461,0,32.992,0,65.983.014a1.765,1.765,0,0,0,1.9-1.07,6.505,6.505,0,0,1,5.986-3.7C-276.536,619.128-274.383,619.137-272.23,619.122Zm-56.611,29.6c-13.929,0-27.858.021-41.788-.034-1.368-.005-1.742.387-1.615,1.684.115,1.18.014,2.38.026,3.571.05,5.052,3.371,8.493,8.44,8.5q38.558.051,77.115.038c.944,0,1.12-.317,1.111-1.17-.04-3.71-.077-7.423.016-11.132.031-1.242-.334-1.489-1.518-1.485C-300.983,648.733-314.912,648.717-328.841,648.717Zm46.271.635c0,7.557.022,15.115-.025,22.672-.006,1.064.245,1.365,1.342,1.36q14.291-.07,28.583,0c1.1.005,1.343-.3,1.34-1.362q-.053-22.535-.026-45.07c0-3.338-1.433-4.776-4.751-4.778q-10.787-.007-21.575,0c-3.508,0-4.887,1.389-4.888,4.918Q-282.573,638.222-282.57,649.352Zm-36.5,32.794c3.712,0,7.424-.031,11.136.013a4.376,4.376,0,0,0,4.269-2.2,4.352,4.352,0,0,0-.428-4.891q-2.971-4.37-5.856-8.8a1.736,1.736,0,0,0-1.681-.856q-7.355.048-14.71,0a1.709,1.709,0,0,0-1.682.842c-1.936,3-3.938,5.953-5.933,8.911a4.229,4.229,0,0,0-.431,4.647,4.29,4.29,0,0,0,4.182,2.33C-326.492,682.123-322.78,682.146-319.068,682.146Zm52.09-5.768c-4.81,0-9.62.03-14.43-.025-1-.012-1.2.3-1.185,1.235.062,3.023,1.547,4.554,4.582,4.556q11.062.01,22.126,0c3.02,0,4.489-1.547,4.555-4.588.022-.982-.268-1.21-1.219-1.2C-257.357,676.4-262.167,676.378-266.977,676.378Z" transform="translate(375.217 -574.623)" fill="#060605"/><path d="M-263.4,628c-2.153.015-4.306.006-6.457.05a6.505,6.505,0,0,0-5.986,3.7,1.765,1.765,0,0,1-1.9,1.07q-32.992-.026-65.983-.014-3.231,0-6.461,0c-1.844,0-2.624.449-2.539,1.547.124,1.6,1.352,1.447,2.46,1.447q35.879,0,71.757,0c1.97,0,1.766-.254,1.762,1.744-.007,3.526-.043,7.051-.067,10.576q-39.239,0-78.478.023c-1.2,0-1.611-.227-1.608-1.542q.075-25.561.034-51.123c0-2.109.332-2.435,2.5-2.435q44.187,0,88.374,0c2.231,0,2.589.371,2.59,2.663Q-263.4,611.851-263.4,628Zm-46.791-3.2q20.134,0,40.268,0c2.016,0,2.387-.375,2.387-2.409q0-12.848,0-25.7c0-2-.43-2.436-2.4-2.437q-40.2,0-80.4,0c-2.042,0-2.42.373-2.421,2.376q0,12.849,0,25.7c0,2.2.267,2.469,2.43,2.47Q-330.258,624.8-310.193,624.8Zm-11.883,22.018h25.019c1.375,0,2.749,0,4.124,0,.976,0,1.612-.46,1.635-1.45s-.642-1.457-1.581-1.543c-.319-.029-.641-.013-.962-.013q-28.182,0-56.363.005a6.319,6.319,0,0,0-1.494.135,1.3,1.3,0,0,0-1.038,1.427,1.341,1.341,0,0,0,1.244,1.4,9.674,9.674,0,0,0,1.372.046Q-336.1,646.815-322.075,646.813Z" transform="translate(366.389 -583.501)" fill="#fabe3f"/><path d="M-306.332,625.922q-20.065,0-40.13,0c-2.164,0-2.43-.272-2.43-2.47q0-12.849,0-25.7c0-2,.379-2.376,2.421-2.376q40.2,0,80.4,0c1.965,0,2.4.439,2.4,2.437q0,12.849,0,25.7c0,2.034-.371,2.409-2.387,2.409Q-286.2,625.924-306.332,625.922Zm-.04-2.99c12.787,0,25.574-.014,38.361.025,1.081,0,1.361-.276,1.354-1.356q-.075-11,0-22c0-.934-.193-1.233-1.189-1.232q-38.43.044-76.859,0c-.979,0-1.2.27-1.193,1.215.04,7.332.056,14.665-.011,22-.011,1.214.377,1.375,1.457,1.372C-331.764,622.918-319.068,622.932-306.373,622.932Z" transform="translate(362.528 -584.627)" fill="#060605"/><path d="M-318.2,694.049q-14.022,0-28.044,0a9.684,9.684,0,0,1-1.372-.046,1.341,1.341,0,0,1-1.244-1.4,1.3,1.3,0,0,1,1.038-1.426,6.309,6.309,0,0,1,1.494-.135q28.182-.009,56.363-.005c.321,0,.643-.016.962.013.939.086,1.6.542,1.581,1.543s-.659,1.449-1.635,1.45c-1.375,0-2.749,0-4.124,0Z" transform="translate(362.512 -630.737)" fill="#060605"/><path d="M-186.895,701.293c-4.134-.032-3.305-.917-3.319-3.566-.031-5.767-.012-11.535-.008-17.3,0-1.769.419-2.2,2.164-2.2q10.712-.008,21.424,0c1.742,0,2.219.458,2.222,2.177q.014,9.338,0,18.676c0,1.651-.5,2.124-2.115,2.153-.731.014-1.461.039-2.192.06Zm9.61-20.064c-2.93,0-5.859.028-8.788-.018-.85-.014-1.177.153-1.168,1.1q.076,7.414,0,14.829c-.009.946.313,1.109,1.165,1.1q8.72-.051,17.44,0c.908.006,1.261-.157,1.25-1.173q-.084-7.345,0-14.692c.011-1.013-.336-1.193-1.248-1.175C-171.516,681.263-174.4,681.229-177.284,681.229Z" transform="translate(286.068 -624.562)" fill="#060605"/><path d="M-165.577,738.177c0,2.137-.051,4.275.018,6.409.032.986-.318,1.272-1.249,1.2-.949-.072-1.908-.025-2.862-.03.953-1.621.4-2.651-1.46-2.664-4.208-.028-8.416-.036-12.625-.051v-4.866Z" transform="translate(282.926 -653.461)" fill="#fabe3f"/><path d="M-183.753,722.762h18.175q0,2.43,0,4.86h-18.181Q-183.754,725.192-183.753,722.762Z" transform="translate(282.926 -646.031)" fill="#fabe3f"/><path d="M-186.828,732.146h18.181c.866.018,1.731.052,2.6.049.982,0,1.622.475,1.658,1.428.039,1.04-.648,1.547-1.661,1.587-.864.034-1.731.041-2.6.061h-18.177c-.547-.019-1.1-.024-1.643-.059-.993-.064-1.7-.493-1.659-1.589.038-1.012.7-1.413,1.656-1.427C-187.924,732.188-187.376,732.163-186.828,732.146Z" transform="translate(285.999 -650.554)" fill="#060605"/><path d="M-186.837,747.571c4.208.016,8.417.023,12.625.051,1.86.012,2.413,1.043,1.46,2.664a3.147,3.147,0,0,1-1.584.346c-4.577-.012-9.155,0-13.732-.01-1.433,0-2.161-.547-2.074-1.582.107-1.283,1.018-1.466,2.073-1.428C-187.66,747.628-187.248,747.587-186.837,747.571Z" transform="translate(286.008 -657.99)" fill="#060605"/></svg>