<svg xmlns="http://www.w3.org/2000/svg" width="83.285" height="102.377" viewBox="0 0 83.285 102.377"><path d="M959.488,136.287q0-21.3,0-42.593c0-4.188,2.232-7.237,6-8.275a9.866,9.866,0,0,1,2.634-.289q33,0,66,0c5.3,0,8.641,3.36,8.642,8.672q.008,42.537,0,85.074c0,5.238-3.356,8.616-8.584,8.619q-33.053.015-66.108,0c-5.229,0-8.583-3.38-8.586-8.616Q959.479,157.584,959.488,136.287Zm41.63-28.158c-12.68,0-25.36.014-38.04-.026-.994,0-1.2.253-1.194,1.213q.044,34.658.023,69.316c0,4.222,2.206,6.438,6.4,6.438h65.656c4.139,0,6.383-2.229,6.383-6.349q0-34.714.027-69.427c0-1.008-.275-1.189-1.219-1.187Q1020.138,108.156,1001.118,108.129Zm-.021-2.438q19.082,0,38.164.017c.827,0,1.128-.148,1.113-1.063-.06-3.623-.02-7.248-.026-10.872-.007-3.921-2.287-6.214-6.186-6.214q-33.06,0-66.121,0c-3.827,0-6.126,2.309-6.134,6.153-.007,3.624.036,7.249-.027,10.872-.017.953.265,1.131,1.164,1.129Q982.071,105.665,1001.1,105.691Z" transform="translate(-959.486 -85.127)" fill="#080808"/><path d="M1006.378,132.776c10.907,0,21.814.015,32.721-.025,1.047,0,1.263.315,1.261,1.3q-.04,31.889.009,63.778c0,1.167-.34,1.386-1.428,1.384q-32.554-.047-65.108,0c-1.072,0-1.439-.191-1.437-1.374q.062-31.889,0-63.777c0-1.121.347-1.31,1.37-1.307C984.638,132.79,995.508,132.776,1006.378,132.776Zm-2,14.465a27.735,27.735,0,0,0-3.1.2,23.877,23.877,0,1,0,26.887,24.885,23.512,23.512,0,0,0-5.592-16.589c-.448-.536-.376-.8.079-1.235,1.515-1.463,3.009-2.95,4.466-4.471a1.086,1.086,0,0,1,1.5-.287,5.931,5.931,0,0,0,6.881-1.038c.858-.757,1.627-1.613,2.447-2.413a1.3,1.3,0,0,0,.018-2.107c-2.225-2.219-4.435-4.452-6.67-6.66-.785-.775-1.377-.745-2.189.044-.742.721-1.477,1.45-2.193,2.2a6.029,6.029,0,0,0-1.173,7.145.987.987,0,0,1-.283,1.382c-1.482,1.444-2.966,2.889-4.38,4.4-.563.6-.886.575-1.506.059A23.56,23.56,0,0,0,1004.375,147.241Z" transform="translate(-964.739 -104.506)" fill="#fcc040"/><path d="M979.3,102.038a3.717,3.717,0,0,1-7.434-.1,3.717,3.717,0,0,1,7.434.1Zm-2.424-.05a1.25,1.25,0,0,0-1.276-1.258,1.218,1.218,0,0,0-1.3,1.218,1.287,1.287,0,1,0,2.575.04Z" transform="translate(-964.522 -90.484)" fill="#080808"/><path d="M1013.864,101.991a3.691,3.691,0,1,1-3.63-3.7A3.69,3.69,0,0,1,1013.864,101.991Zm-2.427.081a1.186,1.186,0,0,0-1.2-1.336,1.258,1.258,0,1,0-.072,2.515A1.181,1.181,0,0,0,1011.436,102.071Z" transform="translate(-978.61 -90.484)" fill="#080808"/><path d="M989.2,101.986a3.694,3.694,0,1,1,3.716,3.713A3.681,3.681,0,0,1,989.2,101.986Zm4.964.035a1.2,1.2,0,0,0-1.216-1.291,1.152,1.152,0,0,0-1.308,1.17,1.174,1.174,0,0,0,1.248,1.346A1.209,1.209,0,0,0,994.164,102.021Z" transform="translate(-971.578 -90.481)" fill="#080808"/><path d="M1009.909,150.132a23.56,23.56,0,0,1,15.188,5.516c.62.516.943.542,1.506-.059,1.414-1.509,2.9-2.955,4.38-4.4a.987.987,0,0,0,.284-1.382,6.03,6.03,0,0,1,1.173-7.145c.716-.747,1.451-1.476,2.193-2.2.813-.789,1.4-.819,2.189-.044,2.235,2.208,4.445,4.441,6.67,6.66a1.3,1.3,0,0,1-.018,2.107c-.82.8-1.589,1.656-2.447,2.413a5.931,5.931,0,0,1-6.881,1.038,1.086,1.086,0,0,0-1.5.287c-1.456,1.521-2.951,3.008-4.466,4.471-.455.439-.527.7-.079,1.235a23.514,23.514,0,0,1,5.592,16.589,23.856,23.856,0,1,1-26.887-24.885A27.737,27.737,0,0,1,1009.909,150.132Zm14.265,7.89a20.851,20.851,0,0,0-12.341-5.385,21.45,21.45,0,1,0,19.457,21.953,21.066,21.066,0,0,0-4.793-14.165c-.412-.518-.693-.729-1.25-.108-.961,1.072-2,2.077-3.053,3.061-.451.422-.419.677-.056,1.156a15.217,15.217,0,0,1,2.907,12.636,15.484,15.484,0,1,1-5.742-15.464c.527.394.782.426,1.244-.064C1021.687,160.433,1022.9,159.288,1024.173,158.022Zm-4.262,7.594c-1.477,1.5-2.847,2.947-4.286,4.324a1.045,1.045,0,0,0-.218,1.476,6.091,6.091,0,1,1-9.71-1.862,5.984,5.984,0,0,1,6.776-1.068,1.054,1.054,0,0,0,1.488-.258c1.162-1.24,2.363-2.448,3.606-3.606.578-.539.575-.815-.075-1.288a13.222,13.222,0,0,0-14.8-.265,13.074,13.074,0,1,0,17.214,2.547Zm16.867-14.779c1.936.089,2.94-1.349,4.108-2.5.287-.284-.05-.46-.213-.623-1.51-1.521-3.031-3.031-4.54-4.552-.227-.23-.394-.406-.694-.071a24,24,0,0,0-1.733,1.861,3.488,3.488,0,0,0-.242,3.871A3.621,3.621,0,0,0,1036.778,150.837ZM1013.138,172.4c-.822.842-1.533,1.582-2.258,2.308-.575.576-1.232.737-1.834.1a1.2,1.2,0,0,1,.161-1.844c.524-.518,1.051-1.034,1.557-1.57.193-.2.59-.368.5-.664-.1-.324-.517-.325-.832-.37a3.716,3.716,0,1,0,2.708,2.043Z" transform="translate(-970.272 -107.398)" fill="#080808"/><path d="M1027.014,193.3a3.635,3.635,0,0,1-5.458,4.525,3.673,3.673,0,0,1,2.75-6.568c.315.045.732.046.831.37.092.3-.3.46-.5.664-.506.536-1.033,1.052-1.557,1.57a1.2,1.2,0,0,0-.161,1.844c.6.641,1.258.48,1.834-.1C1025.481,194.882,1026.192,194.142,1027.014,193.3Z" transform="translate(-984.148 -128.298)" fill="#fcfcfc"/></svg>